<svg width="827" height="516" viewBox="0 0 827 516" fill="none" xmlns="http://www.w3.org/2000/svg">
<path d="M577.691 22.0782L442.994 211.362C439.225 216.658 443.011 224 449.512 224H721.326C727.858 224 731.637 216.596 727.805 211.307L590.688 22.0234C587.477 17.5914 580.864 17.6192 577.691 22.0782Z" fill="#443126"/>
<path d="M521.859 60.1135L682.812 365.268C685.622 370.595 681.759 377 675.736 377H113.264C107.241 377 103.378 370.595 106.188 365.268L269.557 55.5331C271.947 51.0017 277.921 49.8533 281.821 53.1755L310.734 77.8063C314.634 81.1286 320.608 79.9802 322.998 75.4488L355.717 13.4156C358.719 7.72527 366.868 7.72527 369.869 13.4156L444.027 154.013C447.029 159.704 455.178 159.704 458.179 154.013L507.707 60.1135C510.708 54.4232 518.857 54.4231 521.859 60.1135Z" fill="#3C2B22"/>
<path d="M248.396 127.041L7.85871 503.694C4.45793 509.019 8.28265 516 14.6011 516H811.688C818.15 516 821.945 508.735 818.255 503.431L555.885 126.332C552.625 121.646 545.648 121.784 542.576 126.595L528.256 149.017C524.775 154.468 516.601 153.75 514.124 147.776L483.6 74.1696C481.123 68.1957 472.949 67.4777 469.468 72.9283L355.138 251.956C351.993 256.881 344.799 256.881 341.653 251.956L261.881 127.041C258.735 122.116 251.541 122.116 248.396 127.041Z" fill="#38281F"/>
</svg>
